<svg width="20" height="20" viewBox="0 0 20 20" fill="none" xmlns="http://www.w3.org/2000/svg">
<path fill-rule="evenodd" clip-rule="evenodd" d="M10 18C14.4183 18 18 14.4183 18 10C18 5.58175 14.4183 2.00003 10 2.00003C5.58172 2.00003 2 5.58175 2 10C2 14.4183 5.58172 18 10 18ZM13.7071 8.70714C14.0976 8.31661 14.0976 7.68345 13.7071 7.29292C13.3166 6.9024 12.6834 6.9024 12.2929 7.29292L9 10.5858L7.70711 9.29292C7.31658 8.9024 6.68342 8.9024 6.29289 9.29292C5.90237 9.68345 5.90237 10.3166 6.29289 10.7071L8.29289 12.7071C8.68342 13.0977 9.31658 13.0977 9.70711 12.7071L13.7071 8.70714Z" fill="#00754A"/>
</svg>
