<svg width="20" height="20" viewBox="0 0 20 20" fill="none" xmlns="http://www.w3.org/2000/svg">
<path fill-rule="evenodd" clip-rule="evenodd" d="M18 10C18 14.4183 14.4183 18 10 18C5.58172 18 2 14.4183 2 10C2 5.58175 5.58172 2.00003 10 2.00003C14.4183 2.00003 18 5.58175 18 10ZM11 14C11 14.5523 10.5523 15 10 15C9.44771 15 9 14.5523 9 14C9 13.4477 9.44771 13 10 13C10.5523 13 11 13.4477 11 14ZM10 5.00003C9.44771 5.00003 9 5.44775 9 6.00003V10C9 10.5523 9.44771 11 10 11C10.5523 11 11 10.5523 11 10V6.00003C11 5.44775 10.5523 5.00003 10 5.00003Z" fill="#B31212"/>
</svg>
