<svg width="24" height="24" viewBox="0 0 24 24" fill="none" xmlns="http://www.w3.org/2000/svg">
<path fill-rule="evenodd" clip-rule="evenodd" d="M5.15128 5.15152C5.61991 4.68289 6.3797 4.68289 6.84833 5.15152L11.9998 10.303L17.1513 5.15152C17.6199 4.68289 18.3797 4.68289 18.8483 5.15152C19.317 5.62015 19.317 6.37995 18.8483 6.84858L13.6969 12L18.8483 17.1515C19.317 17.6202 19.317 18.3799 18.8483 18.8486C18.3797 19.3172 17.6199 19.3172 17.1513 18.8486L11.9998 13.6971L6.84833 18.8486C6.3797 19.3172 5.61991 19.3172 5.15128 18.8486C4.68265 18.3799 4.68265 17.6202 5.15128 17.1515L10.3027 12L5.15128 6.84858C4.68265 6.37995 4.68265 5.62015 5.15128 5.15152Z" fill="#373B4D"/>
</svg>
