<svg width="24" height="24" viewBox="0 0 24 24" fill="none" xmlns="http://www.w3.org/2000/svg">
<path fill-rule="evenodd" clip-rule="evenodd" d="M5.15225 5.15152C5.62088 4.68289 6.38068 4.68289 6.84931 5.15152L12.0008 10.303L17.1523 5.15152C17.6209 4.68289 18.3807 4.68289 18.8493 5.15152C19.3179 5.62015 19.3179 6.37995 18.8493 6.84858L13.6978 12L18.8493 17.1515C19.3179 17.6202 19.3179 18.3799 18.8493 18.8486C18.3807 19.3172 17.6209 19.3172 17.1523 18.8486L12.0008 13.6971L6.84931 18.8486C6.38068 19.3172 5.62088 19.3172 5.15225 18.8486C4.68362 18.3799 4.68362 17.6202 5.15225 17.1515L10.3037 12L5.15225 6.84858C4.68362 6.37995 4.68362 5.62015 5.15225 5.15152Z" fill="#C00D53"/>
</svg>
