<svg width="16" height="17" viewBox="0 0 16 17" fill="none" xmlns="http://www.w3.org/2000/svg">
<path fill-rule="evenodd" clip-rule="evenodd" d="M7.19942 2.10001C6.8964 2.10001 6.61939 2.27121 6.48387 2.54224L5.90499 3.70001H3.19941C2.75759 3.70001 2.39941 4.05818 2.39941 4.50001C2.39941 4.94183 2.75759 5.30001 3.19941 5.30001L3.19941 13.3C3.19941 14.1837 3.91576 14.9 4.79941 14.9H11.1994C12.0831 14.9 12.7994 14.1837 12.7994 13.3V5.30001C13.2412 5.30001 13.5994 4.94183 13.5994 4.50001C13.5994 4.05818 13.2412 3.70001 12.7994 3.70001H10.0938L9.51496 2.54224C9.37944 2.27121 9.10243 2.10001 8.79942 2.10001H7.19942ZM5.59941 6.90001C5.59941 6.45818 5.95759 6.10001 6.39941 6.10001C6.84124 6.10001 7.19941 6.45818 7.19941 6.90001V11.7C7.19941 12.1418 6.84124 12.5 6.39941 12.5C5.95759 12.5 5.59941 12.1418 5.59941 11.7V6.90001ZM9.59941 6.10001C9.15759 6.10001 8.79941 6.45818 8.79941 6.90001V11.7C8.79941 12.1418 9.15759 12.5 9.59941 12.5C10.0412 12.5 10.3994 12.1418 10.3994 11.7V6.90001C10.3994 6.45818 10.0412 6.10001 9.59941 6.10001Z" fill="#373B4D"/>
</svg>
