<svg width="20" height="21" viewBox="0 0 20 21" fill="none" xmlns="http://www.w3.org/2000/svg">
<path fill-rule="evenodd" clip-rule="evenodd" d="M10.0005 18.5C14.4188 18.5 18.0005 14.9183 18.0005 10.5C18.0005 6.08172 14.4188 2.5 10.0005 2.5C5.58221 2.5 2.00049 6.08172 2.00049 10.5C2.00049 14.9183 5.58221 18.5 10.0005 18.5ZM13.7076 9.20711C14.0981 8.81658 14.0981 8.18342 13.7076 7.79289C13.3171 7.40237 12.6839 7.40237 12.2934 7.79289L9.00049 11.0858L7.70759 9.79289C7.31707 9.40237 6.68391 9.40237 6.29338 9.79289C5.90286 10.1834 5.90286 10.8166 6.29338 11.2071L8.29338 13.2071C8.68391 13.5976 9.31707 13.5976 9.70759 13.2071L13.7076 9.20711Z" fill="#00754A"/>
</svg>
