<svg width="20" height="21" viewBox="0 0 20 21" fill="none" xmlns="http://www.w3.org/2000/svg">
<path fill-rule="evenodd" clip-rule="evenodd" d="M8.25706 3.59882C9.02167 2.23952 10.9788 2.23952 11.7434 3.59882L17.3237 13.5194C18.0736 14.8526 17.1102 16.4999 15.5805 16.4999H4.4199C2.89025 16.4999 1.92682 14.8526 2.67675 13.5194L8.25706 3.59882ZM11.0001 13.5C11.0001 14.0523 10.5524 14.5 10.0001 14.5C9.44784 14.5 9.00012 14.0523 9.00012 13.5C9.00012 12.9477 9.44784 12.5 10.0001 12.5C10.5524 12.5 11.0001 12.9477 11.0001 13.5ZM10.0001 5.5C9.44784 5.5 9.00012 5.94772 9.00012 6.5V9.5C9.00012 10.0523 9.44784 10.5 10.0001 10.5C10.5524 10.5 11.0001 10.0523 11.0001 9.5V6.5C11.0001 5.94772 10.5524 5.5 10.0001 5.5Z" fill="#B34700"/>
</svg>
