<svg width="25" height="24" viewBox="0 0 25 24" fill="none" xmlns="http://www.w3.org/2000/svg">
<path d="M10.2413 10.1503C9.6876 10.1503 9.25046 10.636 9.25046 11.2286C9.25046 11.8211 9.69732 12.3068 10.2413 12.3068C10.795 12.3068 11.2322 11.8211 11.2322 11.2286C11.2419 10.636 10.795 10.1503 10.2413 10.1503ZM13.787 10.1503C13.2333 10.1503 12.7962 10.636 12.7962 11.2286C12.7962 11.8211 13.243 12.3068 13.787 12.3068C14.3407 12.3068 14.7779 11.8211 14.7779 11.2286C14.7779 10.636 14.3407 10.1503 13.787 10.1503Z" fill="#616B7C"/>
<path d="M18.5086 2H5.49143C4.39371 2 3.5 2.89371 3.5 4.00114V17.1349C3.5 18.2423 4.39371 19.136 5.49143 19.136H16.5074L15.9926 17.3389L17.236 18.4949L18.4114 19.5829L20.5 21.4286V4.00114C20.5 2.89371 19.6063 2 18.5086 2ZM14.7589 14.6869C14.7589 14.6869 14.4091 14.2691 14.1177 13.9C15.3903 13.5406 15.876 12.744 15.876 12.744C15.4777 13.0063 15.0989 13.1909 14.7589 13.3171C14.2731 13.5211 13.8069 13.6571 13.3503 13.7349C12.4177 13.9097 11.5629 13.8611 10.8343 13.7251C10.2806 13.6183 9.80457 13.4629 9.40629 13.3074C9.18286 13.22 8.94 13.1131 8.69714 12.9771C8.668 12.9577 8.63886 12.948 8.60971 12.9286C8.59029 12.9189 8.58057 12.9091 8.57086 12.8994C8.396 12.8023 8.29886 12.7343 8.29886 12.7343C8.29886 12.7343 8.76514 13.5114 9.99886 13.8806C9.70743 14.2497 9.348 14.6869 9.348 14.6869C7.20114 14.6189 6.38514 13.2103 6.38514 13.2103C6.38514 10.0823 7.784 7.54686 7.784 7.54686C9.18286 6.49771 10.5137 6.52686 10.5137 6.52686L10.6109 6.64343C8.86229 7.14857 8.056 7.916 8.056 7.916C8.056 7.916 8.26971 7.79943 8.62914 7.63429C9.66857 7.17771 10.4943 7.05143 10.8343 7.02229C10.8926 7.01257 10.9411 7.00286 10.9994 7.00286C11.592 6.92514 12.2623 6.90571 12.9617 6.98343C13.8846 7.09029 14.8754 7.36229 15.8857 7.916C15.8857 7.916 15.1183 7.18743 13.4669 6.68229L13.6029 6.52686C13.6029 6.52686 14.9337 6.49771 16.3326 7.54686C16.3326 7.54686 17.7314 10.0823 17.7314 13.2103C17.7314 13.2103 16.9057 14.6189 14.7589 14.6869Z" fill="#616B7C"/>
</svg>
