<svg width="25" height="24" viewBox="0 0 25 24" fill="none" xmlns="http://www.w3.org/2000/svg">
<path fill-rule="evenodd" clip-rule="evenodd" d="M12.5 3C7.5293 3 3.5 7.13094 3.5 12.2283C3.5 16.3049 6.0785 19.7642 9.6551 20.9839C10.1051 21.0687 10.2689 20.784 10.2689 20.539C10.2689 20.3206 10.2617 19.7393 10.2572 18.9701C7.7534 19.5274 7.2251 17.7328 7.2251 17.7328C6.8165 16.666 6.2261 16.3822 6.2261 16.3822C5.4089 15.8111 6.2882 15.8221 6.2882 15.8221C7.1909 15.8866 7.6661 16.7729 7.6661 16.7729C8.4689 18.1824 9.773 17.7752 10.2851 17.5393C10.3679 16.9433 10.6001 16.537 10.8575 16.3067C8.8595 16.0736 6.758 15.2813 6.758 11.7455C6.758 10.7386 7.109 9.91407 7.6841 9.26918C7.5914 9.0361 7.2827 8.09734 7.7723 6.82784C7.7723 6.82784 8.5283 6.5791 10.2473 7.77305C10.9815 7.56809 11.739 7.46369 12.5 7.46259C13.265 7.46627 14.0345 7.56853 14.7536 7.77305C16.4717 6.5791 17.2259 6.82692 17.2259 6.82692C17.7173 8.09734 17.4077 9.0361 17.3159 9.26918C17.8919 9.91407 18.2411 10.7386 18.2411 11.7455C18.2411 15.2905 16.136 16.0709 14.1317 16.2993C14.4548 16.584 14.7419 17.1469 14.7419 18.0083C14.7419 19.2409 14.7311 20.2368 14.7311 20.539C14.7311 20.7859 14.8931 21.0733 15.3503 20.983C17.1425 20.3677 18.7004 19.1914 19.8039 17.6205C20.9075 16.0495 21.5008 14.1632 21.5 12.2283C21.5 7.13094 17.4698 3 12.5 3Z" fill="#616B7C"/>
</svg>
