<svg width="202" height="50" viewBox="0 0 202 50" fill="none" xmlns="http://www.w3.org/2000/svg">
<path d="M46.7783 25.2763C46.7783 32.1514 41.1771 37.7249 34.2674 37.7249C31.058 37.7249 28.1311 36.5221 25.9163 34.5456C29.4642 32.9563 31.9342 29.4078 31.9342 25.2853C31.9342 21.1574 29.4581 17.6053 25.9028 16.0189C28.1194 14.0351 31.0515 12.8278 34.2674 12.8278C41.1771 12.8278 46.7783 18.4011 46.7783 25.2763Z" fill="#F02E65"/>
<path d="M29.2665 15.3398C21.583 9.56214 10.4948 14.227 9.30806 23.7369C8.75657 28.1566 10.6198 32.5328 14.1942 35.213C21.882 40.9855 32.9669 36.3125 34.1471 26.8018C34.6947 22.3876 32.8342 18.0185 29.2665 15.3396V15.3398ZM27.8749 17.1741C34.1435 21.8808 32.9405 31.5741 25.7097 34.6224C22.3542 36.0371 18.4948 35.563 15.5857 33.3785C9.31749 28.6718 10.5202 18.9784 17.7509 15.9303C21.1065 14.5158 24.966 14.9898 27.8749 17.1741Z" fill="#F02E65"/>
<path d="M61.1741 16.1406C62.891 16.1406 64.3544 16.5828 65.5646 17.4675C66.7746 18.3524 67.6066 19.5251 68.0609 20.9858V16.3548H70.203V33.212H68.0609V28.5813C67.6066 30.0433 66.7746 31.2165 65.5646 32.1013C64.3544 32.9861 62.891 33.4285 61.1741 33.4285C59.6435 33.4285 58.273 33.0785 57.0629 32.3789C55.8529 31.6794 54.9118 30.6759 54.2395 29.3684C53.5673 28.061 53.2308 26.5326 53.2308 24.7834C53.2308 23.0139 53.5673 21.4755 54.2395 20.168C54.9118 18.8619 55.8477 17.8643 57.0476 17.1745C58.2473 16.485 59.6228 16.1406 61.1741 16.1406ZM61.7324 18.0536C59.8294 18.0536 58.3038 18.6555 57.1552 19.8598C56.0082 21.0639 55.4346 22.7051 55.4346 24.7834C55.4346 26.862 56.0082 28.5034 57.1552 29.7075C58.3038 30.9114 59.8294 31.5133 61.7324 31.5133C62.932 31.5133 64.0127 31.2358 64.9738 30.6801C65.9359 30.125 66.6911 29.3376 67.2392 28.3188C67.787 27.2999 68.0609 26.1216 68.0609 24.7834C68.0609 23.4454 67.787 22.2678 67.2392 21.2499C66.6911 20.2314 65.9359 19.4433 64.9738 18.887C64.0127 18.3314 62.932 18.0536 61.7324 18.0536ZM83.9779 16.1406C85.5293 16.1406 86.8997 16.485 88.089 17.1745C89.2785 17.8643 90.2096 18.8619 90.8819 20.168C91.5541 21.4755 91.8903 23.0139 91.8903 24.7834C91.8903 26.5326 91.5541 28.061 90.8819 29.3684C90.2096 30.6759 89.273 31.6794 88.0738 32.3789C86.8741 33.0785 85.5087 33.4285 83.9779 33.4285C82.2403 33.4285 80.7718 32.9861 79.5721 32.1013C78.3724 31.2165 77.5453 30.0433 77.0909 28.5813V41.1773H74.918V16.3548H77.0909V20.9858C77.5453 19.5251 78.3724 18.3524 79.5721 17.4675C80.7718 16.5828 82.2403 16.1406 83.9779 16.1406ZM83.3887 18.0536C82.189 18.0536 81.108 18.3314 80.1456 18.887C79.1846 19.4433 78.4351 20.2314 77.8975 21.2499C77.36 22.2678 77.0909 23.4454 77.0909 24.7834C77.0909 26.1216 77.36 27.2999 77.8975 28.3188C78.4351 29.3376 79.1846 30.125 80.1456 30.6801C81.108 31.2358 82.189 31.5133 83.3887 31.5133C85.3122 31.5133 86.8431 30.9114 87.9812 29.7075C89.1182 28.5034 89.6866 26.862 89.6866 24.7834C89.6866 22.7051 89.1182 21.0639 87.9812 19.8598C86.8431 18.6555 85.3122 18.0536 83.3887 18.0536ZM104.858 16.1406C106.41 16.1406 107.78 16.485 108.97 17.1745C110.159 17.8643 111.09 18.8619 111.763 20.168C112.435 21.4755 112.771 23.0139 112.771 24.7834C112.771 26.5326 112.435 28.061 111.763 29.3684C111.09 30.6759 110.154 31.6794 108.954 32.3789C107.755 33.0785 106.389 33.4285 104.858 33.4285C103.121 33.4285 101.653 32.9861 100.453 32.1013C99.253 31.2165 98.4262 30.0433 97.9719 28.5813V41.1773H95.7989V16.3548H97.9719V20.9858C98.4262 19.5251 99.253 18.3524 100.453 17.4675C101.653 16.5828 103.121 16.1406 104.858 16.1406ZM104.27 18.0536C103.07 18.0536 101.989 18.3314 101.026 18.887C100.065 19.4433 99.3161 20.2314 98.7783 21.2499C98.2408 22.2678 97.9719 23.4454 97.9719 24.7834C97.9719 26.1216 98.2408 27.2999 98.7783 28.3188C99.3161 29.3376 100.065 30.125 101.026 30.6801C101.989 31.2358 103.07 31.5133 104.27 31.5133C106.193 31.5133 107.724 30.9114 108.862 29.7075C109.999 28.5034 110.567 26.862 110.567 24.7834C110.567 22.7051 109.999 21.0639 108.862 19.8598C107.724 18.6555 106.193 18.0536 104.27 18.0536ZM136.816 16.1099H140.912L136.289 33.212H131.448L127.757 20.7713L123.971 33.212H119.132L114.539 16.1099H118.914L121.707 29.3225L125.522 16.1099H130.145L133.993 29.3225L136.816 16.1099ZM147.459 19.3809C148.099 18.2906 148.947 17.4315 150.002 16.8031C151.058 16.1763 152.237 15.863 153.539 15.863V20.5241H152.267C149.061 20.5241 147.459 22.0059 147.459 24.969V33.212H143.084V16.1099H147.459V19.3809ZM155.463 11.1993C155.463 10.4998 155.712 9.929 156.208 9.48713C156.705 9.04438 157.356 8.82275 158.162 8.82275C158.969 8.82275 159.621 9.04438 160.117 9.48713C160.614 9.929 160.862 10.4998 160.862 11.1993C160.862 11.8786 160.614 12.4398 160.117 12.8829C159.621 13.3258 158.969 13.5474 158.162 13.5474C157.356 13.5474 156.705 13.3258 156.208 12.8829C155.712 12.4398 155.463 11.8786 155.463 11.1993ZM155.96 16.1099H160.335V33.212H155.96V16.1099ZM171.784 29.4758H173.489V33.212H171.193C169.269 33.212 167.796 32.7494 166.772 31.8236C165.748 30.8966 165.236 29.3533 165.236 27.1928V19.783H162.847V16.1099H165.236V11.8793H169.611V16.1099H173.458V19.783H169.611V27.254C169.611 28.0775 169.776 28.6541 170.107 28.9834C170.438 29.3116 170.997 29.4758 171.784 29.4758ZM192.787 24.0118C192.787 24.4444 192.736 24.9386 192.633 25.4939H180.036C180.098 27.017 180.511 28.1389 181.278 28.859C182.042 29.5791 182.994 29.9393 184.132 29.9393C185.145 29.9393 185.988 29.6923 186.659 29.198C187.331 28.7051 187.761 28.0369 187.947 27.1928H192.57C192.343 28.3865 191.857 29.4564 191.113 30.4028C190.367 31.3501 189.411 32.0913 188.243 32.6261C187.074 33.161 185.776 33.4285 184.35 33.4285C182.674 33.4285 181.184 33.0736 179.88 32.3638C178.578 31.6538 177.565 30.64 176.841 29.3225C176.116 28.005 175.754 26.4509 175.754 24.6609C175.754 22.8698 176.116 21.3108 176.841 19.9843C177.565 18.6563 178.578 17.6423 179.88 16.943C181.184 16.2434 182.674 15.8935 184.35 15.8935C186.044 15.8935 187.528 16.2434 188.801 16.943C190.073 17.6423 191.055 18.6046 191.748 19.8291C192.441 21.0534 192.787 22.4476 192.787 24.0118ZM188.382 23.581C188.444 22.1803 188.078 21.1196 187.281 20.3999C186.484 19.6795 185.507 19.3196 184.35 19.3196C183.17 19.3196 182.177 19.6795 181.37 20.3999C180.563 21.1196 180.118 22.1803 180.036 23.581H188.382Z" fill="#F02E65"/>
<path d="M22.0655 20.9693C22.0507 21.006 21.8591 21.7535 21.6535 22.6403C21.4395 23.527 21.1007 24.9267 20.9095 25.7546C20.5411 27.2716 20.3201 28.2682 20.3201 28.4C20.3201 28.4365 20.5486 28.4661 20.8281 28.4661H21.3367L21.5647 27.4546C21.6974 26.9052 21.9923 25.6446 22.2277 24.6553C22.4635 23.6661 22.7504 22.4642 22.8611 21.9803C22.9715 21.4967 23.0821 21.0575 23.1042 21.006C23.1263 20.9401 23.0009 20.9183 22.6179 20.9183C22.3306 20.9183 22.0801 20.9401 22.0655 20.9693ZM18.1105 24.1422L17.433 24.8752L17.6321 25.1097C17.7423 25.2415 18.0447 25.5713 18.3022 25.8427L18.7737 26.3406H20.1142L19.4805 25.6592C19.1342 25.2932 18.847 24.9411 18.847 24.8973C18.847 24.846 19.1122 24.5165 19.4366 24.1645C19.7604 23.8057 20.0256 23.4975 20.0256 23.461C20.0256 23.4315 19.7459 23.4096 19.4072 23.4096H18.7958L18.1105 24.1422ZM23.2659 23.4536C23.2659 23.4757 23.3913 23.6146 23.5458 23.7686C24.1206 24.3402 24.5255 24.8241 24.5033 24.919C24.4888 24.9707 24.2087 25.3148 23.87 25.6738L23.2588 26.3406H23.9436L24.6285 26.3335L25.2543 25.6518C25.6009 25.2711 25.8806 24.9336 25.8806 24.8898C25.8806 24.8533 25.586 24.5088 25.2176 24.1206L24.5553 23.4096H23.9141C23.5532 23.4096 23.2659 23.4315 23.2659 23.4536Z" fill="#F02E65"/>
</svg>
